<svg xmlns="http://www.w3.org/2000/svg" viewBox="0 0 693.67 785.67"><defs><style>.cls-1{isolation:isolate;}.cls-2{fill:#989898;}.cls-3{mix-blend-mode:multiply;}.cls-4{fill:#767777;}</style></defs><g class="cls-1"><g id="Camada_1" data-name="Camada 1"><path class="cls-2" d="M345.66,737.19,70.74,578.46a56.59,56.59,0,0,1-28.22-48.88V244.71a56.59,56.59,0,0,1,28.22-48.88L317.44,53.4a56.61,56.61,0,0,1,56.45,0l246.7,142.43a56.59,56.59,0,0,1,28.22,48.88V529.58a56.59,56.59,0,0,1-28.22,48.88Zm0-686.33a51.46,51.46,0,0,0-25.72,6.87L73.24,200.16a51.59,51.59,0,0,0-25.72,44.55V529.58a51.59,51.59,0,0,0,25.72,44.55L345.66,731.41,618.09,574.13a51.59,51.59,0,0,0,25.72-44.55V244.71a51.59,51.59,0,0,0-25.72-44.55L371.39,57.73A51.47,51.47,0,0,0,345.66,50.86Z"/><path class="cls-2" d="M657.23,171.81,376.37,9.66a61.41,61.41,0,0,0-61.41,0L34.11,171.81A61.41,61.41,0,0,0,3.4,225v324.3a61.43,61.43,0,0,0,30.71,53.19L345.67,782.36,657.23,602.48a61.42,61.42,0,0,0,30.7-53.19V225A61.4,61.4,0,0,0,657.23,171.81Zm20.88,55.89a3.75,3.75,0,1,1-2.65-4.59A3.75,3.75,0,0,1,678.11,227.7Zm-10.53-18.45a3.75,3.75,0,1,1,2.65,4.58A3.75,3.75,0,0,1,667.58,209.25Zm-22.42-29a3.74,3.74,0,1,1,1.37,5.12A3.74,3.74,0,0,1,645.16,180.23Zm-16.58-9.57a3.75,3.75,0,1,1,1.37,5.12A3.76,3.76,0,0,1,628.58,170.66ZM612,161.1a3.75,3.75,0,1,1,1.37,5.11A3.75,3.75,0,0,1,612,161.1Zm-16.57-9.57a3.74,3.74,0,1,1,1.37,5.11A3.73,3.73,0,0,1,595.44,151.53ZM578.87,142a3.74,3.74,0,1,1,1.37,5.11A3.74,3.74,0,0,1,578.87,142Zm-16.58-9.57a3.75,3.75,0,1,1,1.37,5.12A3.76,3.76,0,0,1,562.29,132.39Zm-16.57-9.57a3.74,3.74,0,1,1,1.37,5.12A3.74,3.74,0,0,1,545.72,122.82Zm-16.57-9.57a3.74,3.74,0,1,1,1.37,5.12A3.74,3.74,0,0,1,529.15,113.25Zm-16.58-9.56a3.75,3.75,0,1,1,1.37,5.11A3.74,3.74,0,0,1,512.57,103.69ZM496,94.12a3.75,3.75,0,1,1,1.37,5.11A3.73,3.73,0,0,1,496,94.12Zm-16.57-9.57a3.74,3.74,0,1,1,1.37,5.11A3.73,3.73,0,0,1,479.43,84.55ZM462.85,75a3.75,3.75,0,1,1,1.37,5.12A3.76,3.76,0,0,1,462.85,75Zm-16.57-9.57a3.75,3.75,0,1,1,1.37,5.12A3.75,3.75,0,0,1,446.28,65.41Zm-16.57-9.57A3.74,3.74,0,1,1,431.08,61,3.74,3.74,0,0,1,429.71,55.84Zm-16.58-9.56a3.75,3.75,0,1,1,1.38,5.11A3.75,3.75,0,0,1,413.13,46.28ZM398.84,35a3.75,3.75,0,1,1-2.65,4.59A3.74,3.74,0,0,1,398.84,35ZM380,27.13a3.75,3.75,0,1,1,1.37,5.11A3.75,3.75,0,0,1,380,27.13Zm-16.57-9.57a3.74,3.74,0,1,1,1.37,5.11A3.73,3.73,0,0,1,363.45,17.56ZM345.4,11a3.74,3.74,0,1,1-2.64,4.59A3.75,3.75,0,0,1,345.4,11Zm-21.93,5.15a3.75,3.75,0,1,1-1.37,5.12A3.75,3.75,0,0,1,323.47,16.18ZM306.9,25.75a3.75,3.75,0,1,1-1.37,5.12A3.76,3.76,0,0,1,306.9,25.75ZM288.62,37.6a3.74,3.74,0,1,1,2.64,4.59A3.73,3.73,0,0,1,288.62,37.6Zm-14.83,7.3A3.74,3.74,0,1,1,272.42,50,3.74,3.74,0,0,1,273.79,44.9Zm-16.57,9.57a3.74,3.74,0,1,1-1.38,5.11A3.73,3.73,0,0,1,257.22,54.47ZM240.64,64a3.74,3.74,0,1,1-1.37,5.11A3.75,3.75,0,0,1,240.64,64ZM224.07,73.6a3.75,3.75,0,1,1-1.37,5.12A3.74,3.74,0,0,1,224.07,73.6ZM207.5,83.17a3.75,3.75,0,1,1-1.37,5.12A3.74,3.74,0,0,1,207.5,83.17Zm-16.58,9.57a3.75,3.75,0,1,1-1.37,5.12A3.76,3.76,0,0,1,190.92,92.74Zm-16.57,9.57a3.74,3.74,0,1,1-1.37,5.11A3.74,3.74,0,0,1,174.35,102.31Zm-16.57,9.57a3.74,3.74,0,1,1-1.37,5.11A3.73,3.73,0,0,1,157.78,111.88Zm-16.58,9.57a3.74,3.74,0,1,1-1.37,5.11A3.75,3.75,0,0,1,141.2,121.45ZM124.63,131a3.74,3.74,0,1,1-1.37,5.11A3.74,3.74,0,0,1,124.63,131Zm-16.57,9.56a3.75,3.75,0,1,1-1.37,5.12A3.74,3.74,0,0,1,108.06,140.58Zm-16.58,9.57a3.75,3.75,0,1,1-1.37,5.12A3.75,3.75,0,0,1,91.48,150.15Zm-16.57,9.57a3.75,3.75,0,1,1-1.37,5.12A3.76,3.76,0,0,1,74.91,159.72Zm-16.57,9.57A3.74,3.74,0,1,1,57,174.4,3.73,3.73,0,0,1,58.34,169.29Zm-16.57,9.57A3.74,3.74,0,1,1,40.39,184,3.73,3.73,0,0,1,41.77,178.86Zm16.69,9.78L317.36,39.16a56.62,56.62,0,0,1,56.61,0L632.88,188.64a56.6,56.6,0,0,1,28.31,49v299a56.6,56.6,0,0,1-28.31,49L345.67,751.47,58.46,585.65a56.6,56.6,0,0,1-28.31-49v-299A56.6,56.6,0,0,1,58.46,188.64ZM18.94,203.56a3.75,3.75,0,1,1-1.37,5.12A3.75,3.75,0,0,1,18.94,203.56ZM15.2,220.88A3.74,3.74,0,1,1,13.83,226,3.73,3.73,0,0,1,15.2,220.88Zm1.87,19.45a3.75,3.75,0,1,1-3.74,3.75A3.74,3.74,0,0,1,17.07,240.33Zm0,19.14a3.75,3.75,0,1,1-3.74,3.74A3.74,3.74,0,0,1,17.07,259.47Zm0,19.14a3.75,3.75,0,1,1-3.74,3.74A3.73,3.73,0,0,1,17.07,278.61Zm0,19.13a3.75,3.75,0,1,1-3.74,3.75A3.74,3.74,0,0,1,17.07,297.74Zm0,19.14a3.75,3.75,0,1,1-3.74,3.75A3.74,3.74,0,0,1,17.07,316.88Zm0,19.14a3.75,3.75,0,1,1-3.74,3.74A3.73,3.73,0,0,1,17.07,336Zm0,19.13a3.75,3.75,0,1,1-3.74,3.75A3.74,3.74,0,0,1,17.07,355.15Zm0,19.14A3.75,3.75,0,1,1,13.33,378,3.74,3.74,0,0,1,17.07,374.29Zm0,19.14a3.75,3.75,0,1,1-3.74,3.74A3.73,3.73,0,0,1,17.07,393.43Zm0,19.14a3.74,3.74,0,1,1-3.74,3.74A3.73,3.73,0,0,1,17.07,412.57Zm0,19.13a3.75,3.75,0,1,1-3.74,3.75A3.74,3.74,0,0,1,17.07,431.7Zm0,19.14a3.75,3.75,0,1,1-3.74,3.74A3.74,3.74,0,0,1,17.07,450.84Zm0,19.14a3.74,3.74,0,1,1-3.74,3.74A3.73,3.73,0,0,1,17.07,470Zm0,19.13a3.75,3.75,0,1,1-3.74,3.75A3.74,3.74,0,0,1,17.07,489.11Zm0,19.14A3.75,3.75,0,1,1,13.33,512,3.74,3.74,0,0,1,17.07,508.25Zm0,19.14a3.75,3.75,0,1,1-3.74,3.74A3.73,3.73,0,0,1,17.07,527.39Zm-3,22.28a3.74,3.74,0,1,1,2.65,4.59A3.74,3.74,0,0,1,14.05,549.67Zm10.52,18.45a3.74,3.74,0,1,1-2.64-4.58A3.74,3.74,0,0,1,24.57,568.12Zm3.72-378.56a3.75,3.75,0,1,1-1.37,5.12A3.76,3.76,0,0,1,28.29,189.56ZM34.17,583a3.75,3.75,0,1,1-2.65-4.58A3.75,3.75,0,0,1,34.17,583Zm12.71,12.23a3.75,3.75,0,1,1-1.37-5.11A3.73,3.73,0,0,1,46.88,595.24Zm16.57,9.57a3.74,3.74,0,1,1-1.37-5.11A3.73,3.73,0,0,1,63.45,604.81ZM80,614.38a3.75,3.75,0,1,1-1.37-5.11A3.76,3.76,0,0,1,80,614.38ZM96.6,624a3.75,3.75,0,1,1-1.37-5.12A3.75,3.75,0,0,1,96.6,624Zm16.57,9.57a3.74,3.74,0,1,1-1.37-5.12A3.74,3.74,0,0,1,113.17,633.52Zm16.58,9.57a3.75,3.75,0,1,1-1.38-5.12A3.76,3.76,0,0,1,129.75,643.09Zm16.57,9.56a3.75,3.75,0,1,1-1.37-5.11A3.75,3.75,0,0,1,146.32,652.65Zm16.57,9.57a3.74,3.74,0,1,1-1.37-5.11A3.73,3.73,0,0,1,162.89,662.22Zm16.57,9.57a3.74,3.74,0,1,1-1.37-5.11A3.73,3.73,0,0,1,179.46,671.79ZM196,681.36a3.75,3.75,0,1,1-1.37-5.12A3.76,3.76,0,0,1,196,681.36Zm16.57,9.57a3.74,3.74,0,1,1-1.37-5.12A3.74,3.74,0,0,1,212.61,690.93Zm16.57,9.57a3.74,3.74,0,1,1-1.37-5.12A3.74,3.74,0,0,1,229.18,700.5Zm16.58,9.56a3.75,3.75,0,1,1-1.37-5.11A3.75,3.75,0,0,1,245.76,710.06Zm16.57,9.57a3.75,3.75,0,1,1-1.37-5.11A3.73,3.73,0,0,1,262.33,719.63Zm16.57,9.57a3.74,3.74,0,1,1-1.37-5.11A3.73,3.73,0,0,1,278.9,729.2Zm14.3,11.31a3.74,3.74,0,1,1,2.65-4.58A3.73,3.73,0,0,1,293.2,740.51ZM312,748.35a3.75,3.75,0,1,1-1.37-5.12A3.76,3.76,0,0,1,312,748.35Zm16.57,9.57a3.75,3.75,0,1,1-1.37-5.12A3.75,3.75,0,0,1,328.59,757.92Zm18,11.31a3.74,3.74,0,1,1,2.65-4.58A3.73,3.73,0,0,1,346.63,769.23Zm21.93-9.94a3.74,3.74,0,1,1,1.37-5.11A3.73,3.73,0,0,1,368.56,759.29Zm16.58-9.56a3.75,3.75,0,1,1,1.37-5.12A3.76,3.76,0,0,1,385.14,749.73Zm18.28-11.86a3.74,3.74,0,1,1-2.65-4.58A3.73,3.73,0,0,1,403.42,737.87Zm14.83-7.29a3.75,3.75,0,1,1,1.37-5.12A3.76,3.76,0,0,1,418.25,730.58ZM434.82,721a3.75,3.75,0,1,1,1.37-5.12A3.74,3.74,0,0,1,434.82,721Zm16.58-9.57a3.74,3.74,0,1,1,1.37-5.11A3.75,3.75,0,0,1,451.4,711.44ZM468,701.87a3.74,3.74,0,1,1,1.37-5.11A3.75,3.75,0,0,1,468,701.87Zm16.57-9.57a3.74,3.74,0,1,1,1.37-5.11A3.73,3.73,0,0,1,484.54,692.3Zm16.57-9.56a3.75,3.75,0,1,1,1.38-5.12A3.74,3.74,0,0,1,501.11,682.74Zm16.58-9.57a3.75,3.75,0,1,1,1.37-5.12A3.76,3.76,0,0,1,517.69,673.17Zm16.57-9.57a3.75,3.75,0,1,1,1.37-5.12A3.74,3.74,0,0,1,534.26,663.6ZM550.83,654a3.75,3.75,0,1,1,1.37-5.11A3.74,3.74,0,0,1,550.83,654Zm16.58-9.57a3.74,3.74,0,1,1,1.37-5.11A3.75,3.75,0,0,1,567.41,644.46ZM584,634.89a3.74,3.74,0,1,1,1.37-5.11A3.73,3.73,0,0,1,584,634.89Zm16.57-9.57a3.74,3.74,0,1,1,1.37-5.11A3.72,3.72,0,0,1,600.55,625.32Zm16.58-9.56a3.75,3.75,0,1,1,1.37-5.12A3.76,3.76,0,0,1,617.13,615.76Zm16.57-9.57a3.75,3.75,0,1,1,1.37-5.12A3.76,3.76,0,0,1,633.7,606.19Zm16.57-9.57a3.75,3.75,0,1,1,1.37-5.12A3.74,3.74,0,0,1,650.27,596.62ZM662.78,583a3.75,3.75,0,1,1,1.37-5.12A3.74,3.74,0,0,1,662.78,583Zm2.44-386.74a3.74,3.74,0,1,1-2.65-4.59A3.74,3.74,0,0,1,665.22,196.3ZM672.13,569a3.74,3.74,0,1,1,1.37-5.11A3.74,3.74,0,0,1,672.13,569Zm3.74-17.31a3.74,3.74,0,1,1,1.37-5.11A3.73,3.73,0,0,1,675.87,551.72Zm-1.38-16.84a3.75,3.75,0,1,1,3.75-3.75A3.74,3.74,0,0,1,674.49,534.88Zm0-19.14a3.75,3.75,0,1,1,3.75-3.75A3.74,3.74,0,0,1,674.49,515.74Zm0-19.14a3.75,3.75,0,1,1,3.75-3.74A3.73,3.73,0,0,1,674.49,496.6Zm0-19.14a3.74,3.74,0,1,1,3.75-3.74A3.73,3.73,0,0,1,674.49,477.46Zm0-19.13a3.75,3.75,0,1,1,3.75-3.75A3.74,3.74,0,0,1,674.49,458.33Zm0-19.14a3.75,3.75,0,1,1,3.75-3.74A3.74,3.74,0,0,1,674.49,439.19Zm0-19.14a3.74,3.74,0,1,1,3.75-3.74A3.73,3.73,0,0,1,674.49,420.05Zm0-19.13a3.75,3.75,0,1,1,3.75-3.75A3.74,3.74,0,0,1,674.49,400.92Zm0-19.14a3.75,3.75,0,1,1,3.75-3.74A3.74,3.74,0,0,1,674.49,381.78Zm0-19.14a3.75,3.75,0,1,1,3.75-3.74A3.73,3.73,0,0,1,674.49,362.64Zm0-19.13a3.75,3.75,0,1,1,3.75-3.75A3.74,3.74,0,0,1,674.49,343.51Zm0-19.14a3.75,3.75,0,1,1,3.75-3.74A3.74,3.74,0,0,1,674.49,324.37Zm0-19.14a3.75,3.75,0,1,1,3.75-3.74A3.73,3.73,0,0,1,674.49,305.23Zm0-19.13a3.75,3.75,0,1,1,3.75-3.75A3.74,3.74,0,0,1,674.49,286.1Zm0-19.14a3.75,3.75,0,1,1,3.75-3.75A3.74,3.74,0,0,1,674.49,267Zm0-19.14a3.75,3.75,0,1,1,3.75-3.74A3.73,3.73,0,0,1,674.49,247.82Z"/><path class="cls-2" d="M264.2,624.63a18.49,18.49,0,0,1-11.37-3.9l-67-52.22a18.5,18.5,0,0,1,22.74-29.19l51.33,40,108.67-161.8a18.5,18.5,0,1,1,30.71,20.62L279.56,616.45a18.5,18.5,0,0,1-12.44,7.95A18,18,0,0,1,264.2,624.63Z"/><g class="cls-3"><rect class="cls-2" x="268.62" y="446.61" width="225.49" height="25.05"/></g><g class="cls-3"><rect class="cls-2" x="268.62" y="492.23" width="225.49" height="25.05"/></g><g class="cls-3"><rect class="cls-2" x="268.62" y="537.86" width="225.49" height="25.05"/></g><path class="cls-2" d="M227.79,245.65a10.86,10.86,0,0,0-10.13,4.2v-1.07h0v-20l-10.34,1.25v48.72h10.34v-2.89a19.35,19.35,0,0,0,4.33,2.76c6,2.15,14,.39,16.74-7.66a26.86,26.86,0,0,0,.39-15.68C237.63,249.49,233.77,246.29,227.79,245.65Zm1.54,21.1a5.32,5.32,0,0,1-6.05,4.66,7.31,7.31,0,0,1-2.06-.46,7.05,7.05,0,0,1-3.4-5.23h0c-.17-2.28-.35-7.06.77-9.32a5.29,5.29,0,0,1,4.78-2.74c3.11-.11,5.47,1.44,5.93,4.59A29.89,29.89,0,0,1,229.33,266.75Z"/><path class="cls-2" d="M264.41,246.25a20.61,20.61,0,0,0-10.8,0c-5.37,1.43-9,4.82-10.12,10.22a34.68,34.68,0,0,0-.59,9.1,13.9,13.9,0,0,0,11.29,13.36,2.8,2.8,0,0,0,.28.06h.05l.76.14.26,0h0a10.47,10.47,0,0,0,1.11.14,20.8,20.8,0,0,0,4.33.07h.23a14.16,14.16,0,0,0,13.57-11.3,24.54,24.54,0,0,0,0-10.92A13.58,13.58,0,0,0,264.41,246.25Zm.43,20q0,.31-.12.63a5.42,5.42,0,0,1-5.85,4.56c-3.17-.14-5.35-2-5.65-5.17a39,39,0,0,1-.05-7c.3-3.66,2.59-5.66,6-5.59a5.53,5.53,0,0,1,5.55,4.36C265.39,260.75,264.91,265.6,264.84,266.23Z"/><path class="cls-2" d="M109.3,246.08h-7.38v-4.9c.54-4.64,8.2-3.76,8.2-3.76v-8h0c-.26-.06-15.23-3.61-18.21,7.78h0s0,0,0,.07c-.47,1.43-.43,7.95-.43,8.77H85.06v8.73h6.79v23.72h9.88V254.81h7.56l.86-8.73Z"/><path class="cls-2" d="M132.87,250.26l-.34-.38h0l-.05,0c-.14-.15-.25-.25-.25-.25h0c-2.32-2.37-3.2-3-5-3.5a12.62,12.62,0,0,0-16,8.66,27.93,27.93,0,0,0-.57,13.19c1.68,9.51,8.75,12.69,16.29,11.12a9.71,9.71,0,0,0,5.62-3.93,2.57,2.57,0,0,0,.32-.51v4.18h9.64V246.12h-9.64v4.14ZM132,266.7a5.22,5.22,0,0,1-5.66,4.72,5.47,5.47,0,0,1-5.56-4.54,28.32,28.32,0,0,1,.21-9.23c.77-2.72,2.75-4.06,5.64-4a5.12,5.12,0,0,1,5.36,4.69A38.85,38.85,0,0,1,132,266.7Z"/><path class="cls-2" d="M172,276.46c-.45-1.64-1-3.25-1.45-4.81l-.47-1.74s-12.08,5.8-14-5.22a24,24,0,0,1,.13-5.49,5.93,5.93,0,0,1,5.83-5.52,13,13,0,0,1,3.36.14c1.5.25,3,.7,4.6,1.1.57-1.74,1.16-3.46,1.7-5.2.08-.27.16-.51.21-.72h0l.27-1a1.15,1.15,0,0,0-.45-.42h0a5.19,5.19,0,0,0-1.49-.7l-.89-.3-.44-.13h0a25.31,25.31,0,0,0-9.74-.63c-7,.74-11.72,4.86-13,11.66a26.46,26.46,0,0,0,.13,10.78,13.1,13.1,0,0,0,9.74,10.4,24,24,0,0,0,10.52.51,32.78,32.78,0,0,0,5.13-1.54l.58-.21-.28-.93Z"/><path class="cls-2" d="M203.78,263.67a54.36,54.36,0,0,0-.33-6.76c-.89-6.09-4.6-10-10.6-11a27.63,27.63,0,0,0-7-.11c-6.37.61-11.21,4.58-12.2,10.55a37.89,37.89,0,0,0-.19,11.1c.73,5.48,3.4,9,8,10.64h.06c2.1.63,12.4,3.32,21.48-1.24l-.36-1.34h0c-.42-1.78-.93-3.54-1.41-5.31l-.05-.17-.52.17h0c-.4.11-.79.23-1.18.36l-.22.07a40.32,40.32,0,0,1-5.41,1.13,29.08,29.08,0,0,1-5.28,0c-2.88-.48-5.09-2-5-5.67h19l1.26,0v-.36Zm-9.29-4.45H183.32c.06-2.22.34-4.29,2.31-5.55a6.16,6.16,0,0,1,6.57-.18C194.38,254.69,194.55,256.86,194.49,259.22Z"/><polygon class="cls-2" points="344.68 246.46 333.72 246.46 324.2 261.34 324.2 230.29 324.2 230.08 324.2 228.83 313.87 230.08 313.87 278.8 324.2 278.8 324.2 263.89 333.72 278.82 344.68 278.82 334.35 262.61 344.68 246.46"/><path class="cls-2" d="M299.65,246.25a20.71,20.71,0,0,0-10.8,0c-5.37,1.43-9,4.83-10.12,10.22a34.68,34.68,0,0,0-.59,9.1,13.91,13.91,0,0,0,11.28,13.37l.29.06h.05c.25.05.51.1.76.13l.26,0h0a10.63,10.63,0,0,0,1.11.13,20.81,20.81,0,0,0,4.33.08h.23A14.18,14.18,0,0,0,310,268.07a24.69,24.69,0,0,0,0-10.92A13.59,13.59,0,0,0,299.65,246.25Zm.43,20c0,.22-.07.43-.12.64a5.42,5.42,0,0,1-5.85,4.56c-3.17-.15-5.35-2-5.65-5.17a39,39,0,0,1,0-7c.3-3.66,2.59-5.66,6-5.6A5.55,5.55,0,0,1,300,258C300.63,260.75,300.15,265.6,300.08,266.22Z"/><path class="cls-4" d="M104.27,332.29A10.76,10.76,0,0,0,95,336.78q-3.28,4.49-3.28,12.51,0,16.69,12.53,16.7A39.71,39.71,0,0,0,117,363.36v8.88a35.54,35.54,0,0,1-13.73,2.56q-10.89,0-16.66-6.61t-5.77-19a31,31,0,0,1,2.83-13.64,20.48,20.48,0,0,1,8.14-9,24.13,24.13,0,0,1,12.45-3.12A33.68,33.68,0,0,1,118.89,327l-3.42,8.61a56.15,56.15,0,0,0-5.63-2.32A16.84,16.84,0,0,0,104.27,332.29Z"/><path class="cls-4" d="M157.78,374.12H129V324.19h28.75v8.68H139.61v11h16.9v8.67h-16.9v12.87h18.17Z"/><path class="cls-4" d="M180.17,355v19.16H169.59V324.19h14.55q10.17,0,15.05,3.71t4.89,11.25a13.23,13.23,0,0,1-2.43,7.84,16,16,0,0,1-6.86,5.37q11.27,16.84,14.68,21.76H197.73L185.81,355Zm0-8.61h3.42c3.34,0,5.81-.55,7.41-1.67a6,6,0,0,0,2.39-5.26c0-2.36-.82-4.05-2.44-5.05s-4.15-1.5-7.57-1.5h-3.21Z"/><path class="cls-4" d="M236.41,374.12H225.83V333H212.27v-8.81H250V333H236.41Z"/><path class="cls-4" d="M259.05,374.12V324.19h10.58v49.93Z"/><path class="cls-4" d="M294,374.12H283.6V324.19h28.61v8.68H294v12.87H311v8.64H294Z"/><path class="cls-4" d="M323.38,374.12V324.19H334v49.93Z"/><path class="cls-4" d="M369.13,332.29a10.75,10.75,0,0,0-9.25,4.49q-3.28,4.49-3.28,12.51,0,16.69,12.53,16.7a39.77,39.77,0,0,0,12.74-2.63v8.88a35.54,35.54,0,0,1-13.73,2.56q-10.89,0-16.66-6.61t-5.77-19a31,31,0,0,1,2.83-13.64,20.48,20.48,0,0,1,8.14-9,24.13,24.13,0,0,1,12.45-3.12A33.61,33.61,0,0,1,383.74,327l-3.41,8.61a56.31,56.31,0,0,0-5.64-2.32A16.74,16.74,0,0,0,369.13,332.29Z"/><path class="cls-4" d="M424.44,374.12l-3.62-11.89H402.63L399,374.12H387.6L405.22,324h12.94l17.69,50.13Zm-6.14-20.77q-5-16.14-5.65-18.26c-.42-1.41-.73-2.53-.91-3.35q-1.12,4.36-6.45,21.61Z"/><path class="cls-4" d="M462.79,374.12H452.2V333H438.65v-8.81h37.69V333H462.79Z"/><path class="cls-4" d="M485.43,374.12V324.19H496v49.93Z"/><path class="cls-4" d="M555.29,349.09q0,12.39-6.15,19.05t-17.62,6.66q-11.47,0-17.62-6.66T507.76,349q0-12.47,6.16-19t17.67-6.57q11.5,0,17.6,6.62T555.29,349.09Zm-36.44,0q0,8.36,3.18,12.6t9.49,4.23q12.68,0,12.67-16.83t-12.6-16.87q-6.32,0-9.53,4.25T518.85,349.09Z"/><path class="cls-4" d="M611.32,374.12H597.86l-21.71-37.77h-.31q.64,10,.65,14.27v23.5H567V324.19h13.35l21.68,37.39h.24q-.51-9.72-.51-13.76V324.19h9.53Z"/><path class="cls-2" d="M381,279.68a28,28,0,0,1-7.07-1.07L368,279.68V230.41l5.87-.93v19.38c2.36-2.22,5.22-4.07,9.15-4.07,9.22,0,14.58,7.43,14.58,17.3S390.76,279.68,381,279.68Zm.86-29.46a11.89,11.89,0,0,0-7.93,3.15V272a11.18,11.18,0,0,0,7.29,2.36c6.65,0,10.37-5.51,10.37-12.16C391.55,255,387.9,250.22,381.82,250.22Z"/><path class="cls-2" d="M404,230.41l5.86-.93v49.13H404Z"/><path class="cls-2" d="M424.15,266.45c0,5.72,2.14,7.58,6.44,7.58a13.53,13.53,0,0,0,8.93-3.57v-24.6h5.87v32.89l-5.87.93v-4.79a15.29,15.29,0,0,1-11,4.79c-6.29,0-10.22-4.15-10.22-11.3V245.86h5.86Z"/><path class="cls-2" d="M468.69,274.25a18.16,18.16,0,0,0,9.8-2.72l1.07,5.43a21.27,21.27,0,0,1-11,2.72c-9.87,0-16.59-7.08-16.59-17.09,0-10.58,7-17.8,16.16-17.8,8,0,12.51,5,12.51,12.8a17.17,17.17,0,0,1-.71,5.22h-3.43c-2.08,0-4.79,0-7.58.07-3.22.07-6.94.07-11,.07v.28C458.11,269.67,462.4,274.25,468.69,274.25ZM475,258c0-4.86-2.29-8.08-7.44-8.08-5.65,0-8.79,4.44-9.37,8.73l16.81-.14Z"/><path class="cls-2" d="M502,244.79c9.23,0,14.59,7.43,14.59,17.3s-6.87,17.59-16.66,17.59a31,31,0,0,1-7.08-.86v16.45H487V245.72l5.86-.93v4.07C495.22,246.64,498.08,244.79,502,244.79Zm-1.86,29.6c6.65,0,10.37-5.51,10.37-12.16,0-7.22-3.65-12-9.72-12a11.92,11.92,0,0,0-7.94,3.15V272A11.18,11.18,0,0,0,500.15,274.39Z"/><path class="cls-2" d="M523.17,278.61V245.72l5.87-.93v5.79c2.29-3.65,4.93-5.79,9.15-5.79a11.65,11.65,0,0,1,6.15,1.64l-1.5,5.51a10,10,0,0,0-5.22-1.51c-3.15,0-6.08,2.22-8.58,6.8v21.38Z"/><path class="cls-2" d="M551.92,238.64c-2.65,0-3.86-2-3.86-4.22s1.21-4.22,3.86-4.22,3.86,2,3.86,4.22S554.56,238.64,551.92,238.64ZM549,245.72l5.86-.93v33.82H549Z"/><path class="cls-2" d="M584.81,258c0-5.72-2.15-7.58-6.79-7.58a13.31,13.31,0,0,0-8.59,3.58v24.6h-5.86V245.72l5.86-.93v4.93a15.42,15.42,0,0,1,10.66-4.93c6.65,0,10.58,4.14,10.58,11.29v22.53h-5.86Z"/><path class="cls-2" d="M609,279.68c-6.36,0-9.72-3.08-9.51-10.23l.5-18.3-5.43-.36.21-3.72,5.44-1.64.14-7.08H606l-.21,7.51H616l-.21,5.29H605.54l-.5,18.52c-.07,3.07,1.36,4.65,4.29,4.65a15.7,15.7,0,0,0,5.94-1.22,25.12,25.12,0,0,1,.57,2.58,26.08,26.08,0,0,1,.5,2.57A21,21,0,0,1,609,279.68Z"/></g></g></svg>