<?xml version="1.0" encoding="utf-8"?>
<!-- Generator: Adobe Illustrator 25.3.1, SVG Export Plug-In . SVG Version: 6.00 Build 0)  -->
<svg version="1.1" id="Layer_1" xmlns="http://www.w3.org/2000/svg" xmlns:xlink="http://www.w3.org/1999/xlink" x="0px" y="0px"
	 viewBox="0 0 1024 449.6" style="enable-background:new 0 0 1024 449.6;" xml:space="preserve">
<style type="text/css">
	.st0{fill:#FEFDFD;}
	.st1{fill:#8C8D90;}
	.st2{fill:#95979A;}
	.st3{fill:#A7A9AB;}
	.st4{fill:#A7A9AC;}
	.st5{fill:#FFFFFF;}
</style>
<g>
	<path class="st0" d="M511.9,7.8c166.8,0,333.6,0,500.5-0.1c2.7,0,3.2,0.5,3.2,3.2c-0.1,141.9-0.1,283.7,0,425.6
		c0,2.5-0.4,3.2-3.1,3.2c-333.6-0.1-667.3-0.1-1000.9,0c-2.5,0-3-0.6-3-3c0.1-142,0.1-283.9,0-425.9c0-2.4,0.4-3,2.9-3
		C178.3,7.8,345.1,7.8,511.9,7.8z"/>
	<path class="st1" d="M172.3,60.9c14-30.7,43.4-49.2,76.9-47.1c27.5,1.8,48.6,15.3,62.4,39.2c45.4,78.3,90.6,156.7,135.9,235
		c5.4,9.4,10.9,18.7,16.2,28.1c25.1,44.1,4.1,98.6-43.8,113.3c-34.7,10.7-71.6-3.9-90.1-35.8c-28.4-48.9-56.6-97.9-84.9-146.9
		c-0.2-0.4-0.4-0.8-0.6-1.2c-1.7-0.8-2.5-2.3-3.4-3.8c-17.8-31-35.8-61.9-53.6-92.9c-5.2-9.1-11.2-17.8-15.2-27.5
		C164,101.2,163.7,81,172.3,60.9z"/>
	<path class="st2" d="M172.3,60.9c-0.3,3.9-2.3,7.4-3.2,11.1c-4.8,21.8-1.5,42.2,10.3,61.4c7.2,11.7,13.9,23.9,20.8,35.8
		c7.6,13.2,15.2,26.3,22.8,39.5c6.3,10.9,12.6,21.9,18.9,32.8c0.8,1.4,1.7,2.7,2.5,4.1c-2.1,1.7-2.9,4.2-4.2,6.4
		c-23.8,41.1-47.5,82.2-71.3,123.3c-0.4,0.7-0.8,1.3-1.2,1.9c-2.1-0.6-1.2-2.2-0.9-3.4c1.5-6.5,2.1-13,2.1-19.6
		c-0.2-18-6.3-33.9-17.6-47.7c-12.2-15-28-24.1-47-27.2c-23.2-3.7-44,1.8-62.3,16.7c-2.4,2-4.7,4.2-7,6.3c-0.5,0.5-1.4,2.3-2.5,0.3
		c9.1-15.8,18.2-31.7,27.3-47.5c36.8-63.7,73.7-127.5,110.5-191.2C170.9,62.8,171.6,61.9,172.3,60.9z"/>
	<path class="st3" d="M32.5,302.5c1.5,0.8,1.8-0.7,2.4-1.4c10.5-10.5,22.9-18,37.4-21.6c17.3-4.3,34.3-3,50.6,4.3
		c21.5,9.6,35.9,25.8,43.3,48.1c4.6,13.9,4.7,28.1,1.4,42.4c-0.2,1-0.9,2,0.2,3c-4.4,9-7.9,18.5-14.3,26.4
		c-13.2,16.3-30,26.3-50.9,29.6c-35.1,5.6-69.1-13.6-82.6-44.4c-11.2-25.6-9.4-50.6,4.9-74.7C27.3,310.1,30,306.4,32.5,302.5z"/>
	<path class="st3" d="M633.7,73.4c7.2,0,14.3,0.1,21.4,0c2.2,0,3,0.7,3.5,2.8c1.8,8.6,0.3,16.8-2.7,24.8c-5.6,15-16.4,25-31.9,28.3
		c-31.1,6.7-54.8-8.2-65.4-35c-2-5.2-1.7-10.7-1.9-16c-0.6-14.6,5.2-26.8,15.4-36.9c11.4-11.3,25.1-16,41.3-15.1
		c10.6,0.6,19.5,4.4,28,10c1.1,0.7,2,1.6,3,2.4c1.4,1.1,1.4,2.3,0.2,3.6c-2.7,2.7-5.4,5.3-8,8.1c-1.4,1.5-2.2,0.3-3.3-0.4
		c-10-7.6-21.2-10-33.4-6.9c-9.1,2.3-15.9,7.9-21.2,15.6c-6.2,8.9-7.9,18.6-5.2,28.7c2.6,9.7,8.7,17.3,17.3,22.7
		c14.1,8.9,34,6.6,45.1-5.1c3.4-3.6,5.4-8,6.5-12.9c0.5-2.2,0.1-3-2.4-3c-9,0.1-18-0.1-27,0c-2.8,0-4-0.6-3.7-3.6
		c0.3-3.1,0.2-6.3,0-9.4c-0.1-2,0.7-2.6,2.6-2.6C619.2,73.4,626.5,73.4,633.7,73.4C633.7,73.4,633.7,73.4,633.7,73.4z"/>
	<path class="st3" d="M859.7,69.3c-0.7-5.3,2.7-4.5,5.4-4.3c3.2,0.1,7.3-1.4,9.4,0.7c1.9,1.9,0.6,6,0.6,9.1
		c0.1,16.4,0,32.9,0.1,49.3c0,4.1-0.3,8.2-1,12.3c-4.6,24.3-34.5,32.8-52.9,16.7c-3.2-2.8-5.9-6-8-9.7c-1.3-2.2-0.7-3.4,1.4-4.3
		c1.4-0.6,2.8-1.2,4.2-1.7c2-0.7,4-1.7,6.1-2c3-0.4,2.7,2.9,4.1,4.3c7,7.4,16.7,9,24.2,3.5c6-4.5,6.2-11.1,6.4-18.5
		c-8.8,6.8-18,7.8-27.7,4.6c-7.4-2.4-12.9-7.4-17.1-13.8c-8.8-13.4-6.4-31.7,5.5-43.4C830.5,61.8,847.7,59.5,859.7,69.3z"/>
	<path class="st3" d="M712.9,233.2c-5.8,0-11.7,0.1-17.5-0.1c-2.4-0.1-3.4,0.8-4.2,3c-2.5,7.2-5.2,14.2-7.6,21.4
		c-0.6,1.7-1.5,2.4-3.3,2.3c-2.9-0.1-5.9-0.1-8.8,0c-2.7,0.1-3.4-0.6-2.3-3.3c6-15.6,11.8-31.4,17.6-47
		c5.7-15.3,11.5-30.5,17.2-45.8c0.5-1.3,1.1-1.9,2.4-2.1c3.7-0.6,7.3-0.5,11-0.2c1.9,0.1,3,1.1,3.7,3c11.6,30.7,23.2,61.5,34.9,92.2
		c0.9,2.3,0.7,3.4-2.1,3.2c-3-0.2-6.1-0.1-9.1,0c-1.8,0.1-2.7-0.6-3.3-2.3c-2.4-7.2-5.1-14.2-7.5-21.4c-0.7-2.1-1.6-2.9-3.9-2.9
		C724.3,233.3,718.6,233.2,712.9,233.2z"/>
	<path class="st3" d="M696.8,62.9c19.6,0,34.6,14.8,34.6,34c-0.1,21.8-17,33.9-34.2,34.2c-18.8,0.3-34.6-15.2-34.7-33.5
		C662.5,77.8,677.2,62.9,696.8,62.9z"/>
	<path class="st3" d="M769.3,130.5c-15.7,1.3-33.6-13.3-33.4-33.9c0.2-18.9,15.3-33.6,34.7-33.7c14.9-0.1,34,10.3,34,33.8
		C804.6,118,789,131.4,769.3,130.5z"/>
	<path class="st3" d="M904.9,96.8c-1.1-14,10.5-30.7,25.7-33.4c12.6-2.3,24.6,2.8,32.1,14.6c1.4,2.3,2.6,4.7,3.9,7.1
		c1.3,2.6,0.5,4.3-2.1,5.4c-7.1,2.9-14.2,5.8-21.3,8.8c-5.8,2.4-11.6,4.9-17.4,7.2c-2.3,0.9-2.5,1.8-0.8,3.7
		c6.8,7.5,17.6,8.2,25.7,1.6c5.4-4.4,3.8-5,10.6-0.5c7.4,5,7.8,4.1,0.7,10.7c-6.7,6.3-15.2,10-23.9,9.5
		c-14.7-0.8-25.7-8.3-31.2-22.6C905.3,104.8,904.7,100.7,904.9,96.8z"/>
	<path class="st3" d="M1001.3,378c-10.5,10.9-23.5,13.4-35.3,7.1c-5.8-3.1-9.6-8.1-11.7-14.2c-3.8-11.3-4-22.8-0.2-34.1
		c6.6-20,30.9-25.3,45.5-10.1c0.4,0.4,0.9,0.8,1.4,1.3c0-10.9,0-21.6,0-32.2c0-5.5-0.6-4.8,4.8-4.8c1.2,0,2.4,0,3.6,0
		c1.1,0,1.6,0.5,1.6,1.6c0,0.8,0,1.5,0,2.3c0,29.4,0,58.8-0.1,88.3c0,1.5,1.3,4-2.1,4c-6.8,0-6.4,0.4-6.6-3.3
		C1002.2,382,1001.7,380.2,1001.3,378z"/>
	<path class="st3" d="M806.9,253.5c-1.1,0-1.6,1-2.3,1.6c-10.7,9.3-25.3,8.3-35.3-1.8c-11.6-11.6-9.5-35.7,2.3-45.3
		c8.8-7.2,27.1-7.4,33.6,1.1c0.3,0.4,0.6,0.9,1.5,0.7c0.5-4.9-0.4-9.8-0.4-14.7c0-4.6,0-9.3-0.2-13.9c-0.1-1.8,0.2-2.7,2.4-2.8
		c9.3-0.7,9.3-0.8,9.3,8.6c0,15.8,0,31.6-0.1,47.4c0,7.6-0.3,15.1-0.3,22.7c0,2.2-0.7,3-2.8,2.7c-0.3,0-0.6,0-1,0
		C807,259.8,807,259.8,806.9,253.5z"/>
	<path class="st3" d="M640.2,355.2c-6.8,0-13.6,0.1-20.5,0c-2,0-2.9,0.4-2.8,2.7c0.7,13.5,9,21.5,22.5,21.5c6.5,0,12.7-1.1,18.7-3.5
		c1.9-0.7,2.5-0.4,2.4,1.6c-0.3,7.9,1.6,6.4-6.3,8.8c-8.8,2.7-17.9,3.2-26.9,0.4c-12.9-3.9-19.2-13.5-20.7-26.3
		c-1.1-9.1-0.5-18.2,3.7-26.6c7.7-15.4,28.2-20.6,41.9-10.6c6.4,4.7,9.6,11.3,10.7,18.9c0.5,3.4,0.6,6.9,0.7,10.3
		c0,2.1-0.6,2.8-2.8,2.7C654,355.1,647.1,355.2,640.2,355.2z"/>
	<path class="st3" d="M914.4,355.2c-6.8,0-13.6,0.1-20.5,0c-2.1,0-2.8,0.5-2.7,2.7c0.5,13.1,8.9,21.4,21.9,21.5
		c6.6,0.1,12.9-1,19-3.4c2.3-0.9,2.7-0.3,2.7,1.9c0,6.5,0.1,6.6-6.3,8.5c-8,2.4-16.2,2.8-24.4,1.1c-10.1-2.2-17.5-8.2-20.9-18
		c-4.2-12-4-24.1,1.6-35.6c7.9-16.2,29.3-20.9,43.1-9.6c5.7,4.7,8.5,11.1,9.5,18.3c0.5,3.4,0.4,6.9,0.6,10.3
		c0.1,1.9-0.6,2.4-2.4,2.4C928.5,355.1,921.5,355.2,914.4,355.2z"/>
	<path class="st3" d="M527.2,342.4c-0.2-7.9,0.9-15.2,3.8-22.2c5.9-14,16.6-21.7,31.4-24.1c10.2-1.6,20.2-0.3,30,3.2
		c2.2,0.8,3.4,1.7,1.7,4.1c-1.3,1.8-1.5,5-3.4,5.6c-1.6,0.5-3.9-1.2-6-1.8c-7-2.3-14.2-3-21.4-1.6c-12.2,2.4-19.5,10.1-23,21.7
		c-3,10.1-2.9,20.4,0.1,30.4c4.9,16.2,17.5,22.2,33.3,21.2c5.3-0.3,10.5-1.2,15.6-2.7c1.6-0.5,2.6-0.2,2.4,1.7c0,0.2,0,0.4,0,0.6
		c0.2,6.7,0.2,6.8-6.4,8.2c-9,1.9-18,2.4-27.1,0.7c-15.8-3.1-26.4-14.1-29.7-30.2C527.6,352.2,527,347.2,527.2,342.4z"/>
	<path class="st3" d="M883.5,78.9c0-15.5,0.1-30.9-0.1-46.4c0-2.8,0.8-3.6,3.5-3.3c3.2,0.3,6.5,0.2,9.7,0.2c2.1,0,3,0.7,3,3
		c-0.1,31.2-0.1,62.5,0,93.7c0,2.4-1,3-3.1,3c-3.4,0-6.7-0.1-10.1,0.2c-2.5,0.2-3.1-0.6-3.1-3.1C883.5,110.4,883.5,94.6,883.5,78.9z
		"/>
	<path class="st3" d="M850.2,202.7c8.9-1.1,15.4,2.8,20.3,9.7c2.1,2.9,1.6,3-1.5,4.5c-4.4,2.2-7.4,1.4-10.9-2.1
		c-4.3-4.2-9.8-3.3-14.9-1.1c-2.1,0.9-3.3,2.7-3.3,5.2c0,2.5,1.7,3.6,3.6,4.5c4.8,2.2,9.9,3,14.9,4.5c3.2,1,6.4,2,9,4.3
		c7.2,6.2,6.8,18.2-0.6,24.3c-9.5,7.7-30.9,7.5-38.9-7.4c-1.8-3.3-1.7-3.7,1.7-5.4c5.3-2.5,5.5-2.7,9.2,2c4.3,5.4,9.7,6.2,16,5.2
		c3.3-0.6,5-2.8,6.3-5.5c1.1-2.5-0.4-4.1-2.3-5.4c-2.7-1.8-5.9-2.7-9-3.6c-5.6-1.6-11.3-2.9-16.1-6.5c-7.7-5.8-7.5-17.2,0.5-22.7
		C838.9,203.7,844.3,201.9,850.2,202.7z"/>
	<path class="st3" d="M812.5,357.4c0-9-0.1-18,0.1-26.9c0-2.6-0.8-3.4-3.3-3.2c-2.1,0.2-4.3,0.1-6.5,0c-1.1,0-2.5,0.3-2.5-1.6
		c0-1.5-0.3-3,1.8-3.5c2.6-0.7,5.2-1.6,7.8-2.3c2-0.5,2.8-1.5,2.7-3.6c-0.2-4.1,0.2-8.2,1.3-12.2c3.2-10.8,12.3-14.4,22.6-13.6
		c2.8,0.2,5.6,0.6,8.3,1.5c1.5,0.4,2,1.1,1.4,2.6c0,0.1-0.1,0.2-0.1,0.3c-1.5,5.5-1.5,5.5-6.9,4.6c-0.7-0.1-1.5-0.2-2.3-0.3
		c-8.1-1.3-13.3,2.7-13.9,10.9c-0.2,3-1.8,6.7,0,8.8c1.8,2.1,5.7,0.5,8.7,0.7c1.5,0.1,3.1,0.2,4.5,0c3.1-0.5,3.8,0.9,3.7,3.8
		c-0.3,4.7,0.4,4.1-4.2,4.1c-3.2,0-6.5,0.2-9.7,0c-2.7-0.2-3.5,0.7-3.5,3.4c0.1,17.4,0,34.8,0.1,52.3c0,3.2-0.7,4.3-4.1,4.1
		c-6-0.3-6-0.1-6-6C812.5,373.2,812.5,365.3,812.5,357.4z"/>
	<path class="st3" d="M733.4,349.7c0-6.5-0.1-13,0-19.5c0-2.2-0.5-3.3-2.9-3c-1.3,0.2-2.6,0.1-3.9,0c-1.1-0.1-2.9,0.7-3-1.4
		c-0.1-1.5-0.7-3.6,1.6-4c8.1-1.6,10.1-7.7,11.3-14.5c0.5-2.9,2-3.9,4.9-3.6c1.7,0.2,2.2,0.7,2.2,2.3c-0.1,3.7,0.1,7.4-0.1,11
		c-0.1,1.9,0.6,2.4,2.4,2.4c4.8-0.1,9.5,0.1,14.3-0.1c2.2-0.1,3.3,0.5,2.9,2.9c-0.1,0.4-0.1,0.9,0,1.3c0.4,2.8-0.5,4-3.6,3.8
		c-4.3-0.3-8.7,0.1-13-0.1c-2.5-0.1-3,0.8-3,3.1c0.1,12.2,0,24.4,0.1,36.7c0,9.7,5.2,14,14.8,12.6c5.9-0.9,5.9-0.8,5.3,5.2
		c-0.1,1.3-0.7,1.9-1.9,2.2c-6.4,1.7-12.8,2-19.1-0.8c-7.5-3.4-9.2-10.2-9.5-17.5C733.2,362.5,733.4,356.1,733.4,349.7
		C733.4,349.7,733.4,349.7,733.4,349.7z"/>
	<path class="st3" d="M690.7,332.3c2.8-4.2,5.4-7.6,8.8-10c5.6-4,11.9-4.9,18.5-3.6c1.4,0.3,1.8,0.9,1.6,2.2c-0.3,2-0.5,4.1-0.8,6.1
		c-0.2,1.4-1.1,1.2-2.1,1.1c-2.1-0.2-4.3-0.4-6.4-0.4c-9.9,0.1-17.7,9.6-18.6,18.5c-1.2,12.1-0.3,24.2-0.5,36.3
		c-0.1,5.3,0.6,4.6-4.7,4.6c-5.3,0-5.3,0-5.3-5.3c0-19.6,0.1-39.1-0.1-58.7c0-2.7,0.5-4.1,3.5-3.6c0.6,0.1,1.3,0.1,1.9,0
		c2.3-0.3,3.3,0.5,3.3,3C689.8,325.4,690.3,328.4,690.7,332.3z"/>
	<path class="st3" d="M777.5,353.2c0-10.3,0.1-20.5-0.1-30.8c0-2.5,0.7-3.1,3.1-3.1c7.3,0.1,7.3,0,7.3,7.3c0,19-0.1,38,0,57
		c0,2.7-0.8,3.5-3.4,3.4c-6.9-0.2-6.9,0-6.9-7C777.5,371.2,777.5,362.2,777.5,353.2z"/>
	<path class="st3" d="M862.6,353.2c0,10.3-0.1,20.5,0.1,30.8c0,2.4-0.6,3.1-3.1,3.1c-7.3-0.1-7.3,0-7.3-7.2c0-19,0.1-38.1-0.1-57.1
		c0-2.7,0.7-3.5,3.4-3.4c7,0.2,7,0,7,6.9C862.6,335.3,862.6,344.2,862.6,353.2z"/>
	<path class="st4" d="M851.6,300.9c0-4,2.4-6.6,5.9-6.6c3.6,0,6,2.7,6,6.9c0,4.4-2.1,6.7-6.1,6.6
		C853.5,307.8,851.5,305.4,851.6,300.9z"/>
	<path class="st4" d="M788.6,301.2c0,4.2-2.4,6.7-6.2,6.6c-3.8-0.1-5.9-2.6-5.8-7c0.1-3.9,2.6-6.6,6-6.6
		C786.2,294.3,788.6,297.1,788.6,301.2z"/>
	<path class="st5" d="M843.9,77.6c9.8,0.4,16.9,8.7,16.7,19.4c-0.3,10.5-5.5,17-15.6,19.4c-4.1,1-8-0.6-10.9-2.8
		c-11.7-8.8-11.4-25.5,0.6-33.5C837.5,78.2,840.6,77.7,843.9,77.6z"/>
	<path class="st5" d="M712.9,179c2.9,7.7,5.7,15.1,8.4,22.4c2,5.4,3.8,10.8,5.9,16.1c0.9,2.3,0.7,3.3-2.1,3.3
		c-8.4-0.1-16.9-0.1-25.3-0.1c-1.5,0-3.1,0-2.2-2.3c5-12.7,8.9-25.9,14.3-38.5C712,179.8,712.2,179.7,712.9,179z"/>
	<path class="st5" d="M696.3,115.7c-10.4,0.9-17.3-9-17.4-19.2c-0.1-10.8,8.1-18.9,18.8-18.9c9,0,17.4,9.1,17.4,18.8
		C715.1,108.2,707.8,115.6,696.3,115.7z"/>
	<path class="st5" d="M788.7,96.8c0.1,10.7-8.4,19.4-18.9,19.5c-9.3,0-17.6-9.1-17.6-19.3c-0.1-10.5,7.7-18.7,17.5-19.2
		C778.9,77.2,789.4,85.8,788.7,96.8z"/>
	<path class="st5" d="M938,77.3c3,0.2,6.4,1.1,9.2,3.6c1.3,1.2,1.7,2.1-0.4,2.9c-8,3.2-15.9,6.5-23.9,9.9c-1.5,0.6-2.5,0.9-2.2-1.4
		C921.5,84.9,929.9,77.3,938,77.3z"/>
	<path class="st5" d="M1001.1,354.8c-0.4,3.1-0.6,6.7-1.2,10.2c-2,12.2-11.2,15.7-21.8,14.5c-7.1-0.8-11.7-5-13.8-11.7
		c-3.1-9.9-3.1-19.8,0.4-29.6c2.8-7.8,9.3-12,17.3-11.6c9.7,0.5,14.9,4.7,17.4,13.2C1000.7,344.7,1000.5,349.6,1001.1,354.8z"/>
	<path class="st5" d="M772.4,232c0-11.7,8-20.3,17.9-19.7c6.8,0.4,11.7,4.2,14.3,10.2c3.1,7,3.1,14.3-1.2,21
		c-3.6,5.8-10.7,8.8-17,7.5c-6.8-1.4-12.3-7.2-13.4-14.2C772.7,234.9,772.5,233,772.4,232z"/>
	<path class="st5" d="M634.9,346.7c-5.2,0-10.4,0-15.6,0c-1.5,0-2-0.3-1.8-2c0.9-12.2,10.4-19.7,22.3-17.6
		c6.3,1.1,11.3,6.2,12.2,13.1c0.9,7.1,2.5,6.4-5.4,6.4C642.7,346.8,638.8,346.7,634.9,346.7z"/>
	<path class="st5" d="M908.9,346.7c-5.1,0-10.2,0-15.2,0c-0.9,0-2.1,0.5-2-1.5c0.4-13.7,14.6-22.7,26.5-16.7
		c5.3,2.7,9.8,11.4,8.8,16.9c-0.3,1.7-1.5,1.3-2.5,1.3C919.3,346.8,914.1,346.7,908.9,346.7z"/>
</g>
</svg>
