<?xml version="1.0" encoding="utf-8"?>
<!-- Generator: Adobe Illustrator 18.0.0, SVG Export Plug-In . SVG Version: 6.00 Build 0)  -->
<!DOCTYPE svg PUBLIC "-//W3C//DTD SVG 1.1//EN" "http://www.w3.org/Graphics/SVG/1.1/DTD/svg11.dtd">
<svg version="1.1" id="Layer_1" xmlns="http://www.w3.org/2000/svg" xmlns:xlink="http://www.w3.org/1999/xlink" x="0px" y="0px"
	 viewBox="0 0 714 217" enable-background="new 0 0 714 217" xml:space="preserve">
<g>
	<path fill="#FFFFFF" d="M96.2,132.6c0,24.4-21.3,36.2-45.5,36.2c-22.6,0-39.4-9.5-47.5-26.9l25.4-14.3c3.2,9.3,10.9,14.7,22.2,14.7
		c9.3,0,15.6-3.2,15.6-9.7c0-16.5-58.4-7.5-58.4-47.3c0-23.1,19.7-36,43-36c18.3,0,34.2,8.4,43,24L69.1,86.9
		c-3.4-7.2-9.7-11.5-18.1-11.5c-7.2,0-13.1,3.2-13.1,9.3C37.8,101.4,96.2,91,96.2,132.6z"/>
	<path fill="#FFFFFF" d="M205.3,52.5v113.2h-29.2V153c-6.8,10.2-18.6,15.8-33.7,15.8c-24,0-42.8-16.8-42.8-46.9V52.5h29.2v65.9
		c0,15.4,9.3,23.3,22.4,23.3c14.3,0,24.9-8.4,24.9-28.1V52.5H205.3z"/>
	<path fill="#FFFFFF" d="M339.6,109.1c0,33.7-24.9,59.8-55.2,59.8c-16.5,0-28.5-6.1-36.7-16.5v13.4h-29.2V7.2h29.2v58.6
		c8.1-10.4,20.1-16.5,36.7-16.5C314.7,49.3,339.6,75.3,339.6,109.1z M310.4,109.1c0-19-13.4-31.9-31.5-31.9
		c-17.9,0-31.2,12.9-31.2,31.9S261,141,278.9,141C297,141,310.4,128.1,310.4,109.1z"/>
	<path fill="#FFFFFF" d="M429.4,132.6c0,24.4-21.3,36.2-45.5,36.2c-22.6,0-39.4-9.5-47.5-26.9l25.4-14.3
		c3.2,9.3,10.9,14.7,22.2,14.7c9.3,0,15.6-3.2,15.6-9.7c0-16.5-58.4-7.5-58.4-47.3c0-23.1,19.7-36,43-36c18.3,0,34.2,8.4,43,24
		l-24.9,13.6c-3.4-7.2-9.7-11.5-18.1-11.5c-7.2,0-13.1,3.2-13.1,9.3C371,101.4,429.4,91,429.4,132.6z"/>
	<path fill="#FFFFFF" d="M431.3,21c0-9.7,8.1-18.1,17.9-18.1c10,0,18.1,8.4,18.1,18.1c0,9.7-8.1,17.9-18.1,17.9
		C439.4,38.9,431.3,30.7,431.3,21z M434.7,52.5h29.2v113.2h-29.2V52.5z"/>
	<path fill="#FFFFFF" d="M592.2,52.5v107.7c0,37.1-29.2,53.9-59.1,53.9c-24.2,0-43.7-9.3-53.6-27.6l24.9-14.3
		c4.8,8.8,12.2,15.8,29.7,15.8c18.3,0,29.7-10,29.7-27.8V148c-7.9,10.6-20.1,17.2-36.2,17.2c-32.1,0-56.4-26-56.4-57.9
		c0-31.7,24.2-57.9,56.4-57.9c16.1,0,28.3,6.6,36.2,17.2v-14H592.2z M563.7,107.3c0-17.9-13.4-30.8-31.7-30.8
		c-18.3,0-31.7,12.9-31.7,30.8c0,18.1,13.4,31,31.7,31C550.3,138.3,563.7,125.4,563.7,107.3z"/>
	<path fill="#FFFFFF" d="M710.8,96.2v69.5h-29.2V99.8c0-15.4-9.3-23.3-22.4-23.3c-14.3,0-24.9,8.4-24.9,28.1v61.1h-29.2V52.5h29.2
		v12.7c6.8-10.2,18.6-15.8,33.7-15.8C692,49.3,710.8,66.1,710.8,96.2z"/>
</g>
</svg>
