<svg id="e23647b2-e6d9-429b-a750-4717a3cdd305" data-name="Layer 1" xmlns="http://www.w3.org/2000/svg" viewBox="0 0 2229.89 614.15"><title>wadline</title><path d="M1052.57,115.5,991.33,313.83H949.64l-40.77-134-1.43,0-41.35,134H824.48L763.31,115.88c2.42-.21,4.23-.49,6-.49,10.41,0,20.82-.09,31.23,0s14.57,3.2,17.13,13.07q15.09,58.29,30,116.61a32.42,32.42,0,0,0,1.65,3.87c5.44-17.67,10.58-34.43,15.77-51.17q10.74-34.65,21.56-69.27c3-9.61,7.53-13,17.38-13.13,2.66,0,5.33,0,8,0,13.43,0,17.11,2.7,21,15.26q7.27,23.57,14.52,47.15l21.48,69.82c.7-.94,1.46-1.53,1.65-2.27q13-50.58,26-101.17,2.34-9.13,4.87-18.22c1.78-6.35,6.4-10,12.62-10.29C1026.66,115.16,1039.2,115.5,1052.57,115.5Z" transform="translate(-5.85 -5.75)" fill="#b3b3b3"/><path d="M1689.59,115.45c9.5,0,18.22-.38,26.88.19,3.31.22,6.79,2.2,9.6,4.2,2.48,1.76,4.2,4.63,6.15,7.1q42.12,53.23,84.21,106.49c1.65,2.08,3.35,4.12,5.9,7.25V115.85h40V314.17c-9.62-.18-19.18.79-28.72-.66-5.65-.86-9.19-5-12.55-9.22q-27.45-34.75-55-69.46-15.54-19.64-31.09-39.28c-1.44-1.82-3-3.52-5.58-6.48v124.7h-39.86Z" transform="translate(-5.85 -5.75)" fill="#b3b3b3"/><path d="M1253.77,115.66c1.61-.11,2.8-.27,4-.27,25.89,0,51.79-.16,77.68.13a102.81,102.81,0,0,1,44.75,10.84c23.3,11.5,39.28,29.54,47.51,54.13,7.61,22.73,7.86,45.82,0,68.43-13.09,37.45-40.65,57.71-79.16,63.8-7.6,1.2-15.42,1.33-23.14,1.4-21.05.18-42.11.06-63.16.06h-7.84C1252.66,308.93,1252.12,126.39,1253.77,115.66Zm46,34.8c-1.51,13.88-.92,122.66.56,127.84,12.76,0,25.59.8,38.28-.19,18.2-1.43,32.16-10.75,39.89-27.39,11-23.63,10.87-47.87.22-71.61-6.29-14-17.56-22.89-32.57-26.56C1330.91,148.82,1315.46,150.89,1299.76,150.45Z" transform="translate(-5.85 -5.75)" fill="#b3b3b3"/><path d="M1174.05,269.55h-75.37c-.82,2.06-1.78,4.22-2.54,6.44-3.05,8.93-6,17.9-9.08,26.8-2.27,6.5-6.81,10.93-13.78,11.18-12.06.42-24.14.12-37.38.12l76.74-198.35H1160l76.77,198.36c-13.22,0-25.29.27-37.35-.1-7-.22-11.49-4.61-13.77-11.14-3.18-9.14-6.26-18.31-9.4-27.46C1175.63,273.57,1174.9,271.79,1174.05,269.55Zm-10.59-32.18-27.16-80.21-26.92,80C1115.44,238.73,1155.23,238.94,1163.46,237.37Z" transform="translate(-5.85 -5.75)" fill="#b3b3b3"/><path d="M1948.15,231.21v47.73h80.91v34.83h-127V115.83h127.46c.1,11.22.11,22.43,0,34.57h-81.31v46c6.66,1.72,13.4.62,20,.81,7,.2,14,0,21.05,0h20.5v34Z" transform="translate(-5.85 -5.75)" fill="#b3b3b3"/><path d="M2235.74,119.65l-63.17,194.3h-72.83l62.06-194.3Z" transform="translate(-5.85 -5.75)" fill="#b3b3b3"/><path d="M1461.23,115.81h45.47V277.42H1580v36.37H1461.23Z" transform="translate(-5.85 -5.75)" fill="#b3b3b3"/><path d="M1604.59,313.72V116.6c5.23-1.51,32.14-2,44.74-.81,1.51,5,2,187.75.44,197.93Z" transform="translate(-5.85 -5.75)" fill="#b3b3b3"/><path d="M504.53,543.73c-2.46,1.35-4.75,3.13-7.34,3.95-25.4,8-51.11,10.36-77.24,3.8a66.52,66.52,0,0,1-22.87-10.68c-1.78-1.28-4.41-2.49-6.42-2.19a153.15,153.15,0,0,0-47.28,14.83c2.59,1.56,4.48,2.76,6.42,3.85a191.48,191.48,0,0,1,53.85,44.78,61.79,61.79,0,0,1,3.9,5.23,16.52,16.52,0,0,1,1.18,3.2c-2.73,2.29-5.34,4.77-8.23,6.86-5.53,4-8,3.42-11.7-2.39a173,173,0,0,0-50.57-51.36c-1.41-.94-2.85-1.84-4.3-2.7a23.9,23.9,0,0,0-2.41-1,126.14,126.14,0,0,0-40.87,38.09,144.17,144.17,0,0,0-9.58,17c-1.74,3.54-3.93,4.81-7.48,3.28-4.13-1.79-8.16-3.8-11.87-5.54-.1-5.38,2.76-8.14,5.26-11,14.94-17.26,30.9-33.42,50.32-45.76a29.3,29.3,0,0,0,2.73-2.36c-2-1.06-3.47-2-5.08-2.74a151.19,151.19,0,0,0-40.92-12c-1.94-.28-4.58-.08-6,1-13,10.16-28.11,13.78-44,15a143.91,143.91,0,0,1-55.17-6.42c-3.34-1.06-6.45-2.82-11-4.85,3.5-2.33,5.56-3.94,7.82-5.17a154,154,0,0,1,52-17.37c15.35-2.19,29.93,1.14,43.51,8.28a56.1,56.1,0,0,0,21.91,6.41,146.29,146.29,0,0,1,42.79,10.65,14.41,14.41,0,0,0,11.73,0,169.93,169.93,0,0,1,50-11.53,27.36,27.36,0,0,0,10.11-3.37c13.29-6.9,27.07-12,42.31-10.92,22.1,1.6,42.48,8.86,61.58,19.9a8.69,8.69,0,0,1,1.7,1.33A12.66,12.66,0,0,1,504.53,543.73Z" transform="translate(-5.85 -5.75)" fill="#b3b3b3"/><path d="M1181,521.13V394.54a11.19,11.19,0,0,1,2.92-.88c17.65.1,35.36-.54,52.94.59,30.83,2,53.25,25.28,55.32,56.11.75,11.2.2,22.26-3.92,32.86-9.43,24.25-27.87,36.73-53.15,38.42-17.34,1.15-34.81.23-52.22.21A7.6,7.6,0,0,1,1181,521.13Zm18.51-13.88c13.13,0,25.65,1.19,38.11-.75,17.88-2.78,29-13.42,34-30.54a66.86,66.86,0,0,0,1.08-31.62c-4.45-22.9-19.83-35.48-43.26-35.89-6.28-.11-12.57,0-18.86,0h-11.05Z" transform="translate(-5.85 -5.75)" fill="#b3b3b3"/><path d="M1008.3,457.93c-1.47,7.8-2.12,15.86-4.55,23.34-10.91,33.64-41.17,45-68.89,41.58-34.75-4.31-56-32-54.49-68.64a77.5,77.5,0,0,1,2.87-17.84c8.06-28.24,32.86-45.43,63.1-44.13C983.11,393.82,1007.37,419.86,1008.3,457.93Zm-19.19-.19-.64,0c0-2.42.18-4.85,0-7.25-2.18-25.27-17.91-41.05-42.18-42.4-22.8-1.26-39.82,11.15-45.49,33.32a65.56,65.56,0,0,0,.21,33.73c4.9,18.23,16.66,29.21,35.33,32,22.34,3.29,45.42-6.8,51-35C988.21,467.37,988.52,462.52,989.12,457.73Z" transform="translate(-5.85 -5.75)" fill="#b3b3b3"/><path d="M1790.06,392.19c35.91.47,61.76,25.68,62.59,61.62a89.54,89.54,0,0,1-2.41,23.66c-6.79,27-28.06,44.1-55.82,45.82a69.2,69.2,0,0,1-27.18-3.35c-18.55-6.43-31.18-19-37.54-37.58a74.9,74.9,0,0,1-.88-46.38C1736.94,408.49,1760.44,391.81,1790.06,392.19Zm44.53,66.14-.64-.05c0-2.66.2-5.34,0-8-2.26-25.53-18.43-41.4-43-42.32-22.27-.83-38.79,11.31-44.48,32.8a65.64,65.64,0,0,0,.1,34.43c4.92,18.23,16.76,29.15,35.43,31.85,22.59,3.26,45.42-7.14,50.85-35.11C1833.66,467.47,1834,462.87,1834.59,458.33Z" transform="translate(-5.85 -5.75)" fill="#b3b3b3"/><path d="M2107.72,469.78v51.82H2090.1V394.38a13.32,13.32,0,0,1,3.23-.76c14.52.15,29,.19,43.55.68a51,51,0,0,1,12.75,2.51c13.2,4,21.79,12.47,23.69,26.45,1.93,14.24-2.15,26.5-14.17,35.08-4.46,3.19-9.73,5.24-14.62,7.81l40.56,55.72c-6.86,0-12.38.61-17.66-.26-2.61-.43-5.3-3.17-7.05-5.53-8.93-12.06-18.18-24-26.09-36.67-5.39-8.67-12.13-11.81-21.7-10.52-.72.1-1.45.05-2.17.14C2109.95,469.11,2109.49,469.29,2107.72,469.78Zm.42-14.51c8.58,0,16.31.49,23.95-.19a32,32,0,0,0,12.88-4.24c9.2-5.37,11.75-14.11,10.51-24.26-1.18-9.69-7.24-15-16.18-17.17-10.13-2.46-20.43-1.88-31.16-1.28Z" transform="translate(-5.85 -5.75)" fill="#b3b3b3"/><path d="M301.71,74.32c7-21.44,13.47-41.2,20-60.93,2.23-6.79,3.78-7.86,10.32-7.6,5.38.22,6.51,1.05,8.5,7.09,4.92,14.93,9.74,29.88,14.62,44.82a82.51,82.51,0,0,0,6,14.85c.61-2.25,1.21-4.51,1.84-6.76Q370.29,40,377.64,14.16c2.25-7.85,2.92-8.31,11.07-8.4,2.61,0,5.23,0,7.8,0,.27,6.51-16.28,62.46-27.75,94.53H353.08l-21.49-67a4.94,4.94,0,0,0-.92,0c-.22.06-.57.15-.62.3-7.38,22.2-14.74,44.41-22.18,66.86H292.15L263,6c5.74,0,10.5-.15,15.24.05,3.48.15,4.76,2.78,5.59,5.78q8,28.64,16.06,57.26C300.28,70.39,300.79,71.66,301.71,74.32Z" transform="translate(-5.85 -5.75)" fill="#b3b3b3"/><path d="M1317.54,521.5V394.83c5.43-1.58,69.64-2,78.73-.47v14H1335.7c0,7.37,0,14,0,20.73,0,6.51,0,13,0,20.29,8.43,1.3,16.59.45,24.67.6,7.93.16,15.86,0,24.2,0v13.76c-8,1.06-16.12.32-24.22.46-7.92.13-15.85,0-24.19,0v43c20,.32,40-.07,60.26.22v14Z" transform="translate(-5.85 -5.75)" fill="#b3b3b3"/><path d="M1986.06,394h78.35v14.2h-59c-1.83,5.68-2.17,32.13-.61,41.65h47.87v14.29h-48.24v43c19.79.76,39.75-.13,60.1.49v13.28c-4.94,1.51-62.86,2.12-77.86.78C1985.21,516.49,1984.6,408.91,1986.06,394Z" transform="translate(-5.85 -5.75)" fill="#b3b3b3"/><path d="M1622.38,507.28V521.7h-77.87c-1.43-5.49-2-112.42-.71-126.79,5-1.67,67.55-2.23,78.4-.6v13.93h-59c-1.83,6-2.12,32.76-.5,41.74h47.7v14h-48.12v43.25Z" transform="translate(-5.85 -5.75)" fill="#b3b3b3"/><path d="M1050.23,474.2v47.28h-17.06c-1.41-4.73-1.87-118-.42-127.27a11.93,11.93,0,0,1,2.7-.59c15,.16,30,.21,45,.68a44.66,44.66,0,0,1,12,2.47c16.48,5.3,25.06,16.7,26.24,34.44,1.1,16.5-7.15,30.93-21.77,37.88a52.58,52.58,0,0,1-22.47,5.1C1066.76,474.24,1059,474.2,1050.23,474.2Zm.32-14.84c9.53,0,18.65.33,27.73-.17,3.44-.19,7-1.84,10.12-3.6,10.1-5.73,13-15.12,11.83-26-1.06-10.1-6.56-17-16.43-19.86-10.82-3.16-21.83-1.93-33.25-1.8Z" transform="translate(-5.85 -5.75)" fill="#b3b3b3"/><path d="M1895.67,474.2v47.4H1878V394.24a15.21,15.21,0,0,1,3-.62c15,.16,30,.22,44.92.69a44.65,44.65,0,0,1,12,2.45c16.69,5.36,25.43,17.16,26.31,35.06.81,16.54-7.57,30.75-22.27,37.5a52.48,52.48,0,0,1-21.76,4.86C1912.5,474.23,1904.78,474.2,1895.67,474.2ZM1895.6,408c.16,17.85-.45,34.6.39,51.56,9.22,0,17.66.25,26.07-.13a28,28,0,0,0,9.68-2.71c10.08-4.46,15.09-14,14.11-26.12-.89-11.07-7.34-18.94-18.36-21.44C1917.31,406.88,1907,407.65,1895.6,408Z" transform="translate(-5.85 -5.75)" fill="#b3b3b3"/><path d="M1466.4,498.79c1.91-5.48,3.39-10.26,5.23-14.9q16.16-40.79,32.47-81.53c3.41-8.54,3.74-8.76,12.65-8.82,2.84,0,5.68,0,9.85,0l-52.09,128.09h-16.83l-52.05-127.86c5.81,0,10.54-.19,15.26.06,4.12.22,5.25,3.66,6.53,6.87,6.69,16.85,13.46,33.67,20.16,50.52C1453.73,466.69,1459.84,482.19,1466.4,498.79Z" transform="translate(-5.85 -5.75)" fill="#b3b3b3"/><path d="M368.64,232.7l95.06,40.47v22.66l-95,40.75V310.1l64.67-25.19.09-1.48-64.78-25Z" transform="translate(-5.85 -5.75)" fill="#b3b3b3"/><path d="M295.74,309.42V335a40.32,40.32,0,0,1-5-1.37c-28.22-12-56.39-24.2-84.68-36.07-4.31-1.81-5.88-4.23-5.53-8.7a120.18,120.18,0,0,0,.05-12.33,5.21,5.21,0,0,1,3.56-5.57q44.39-18.78,88.73-37.67a8.79,8.79,0,0,1,2.67,0V258.6l-65.86,24.68C252.09,292.91,273.91,300.39,295.74,309.42Z" transform="translate(-5.85 -5.75)" fill="#b3b3b3"/><path d="M774.07,408.58V394H874v14.41H833.36c-.07,10-.15,19.37-.18,28.69s0,18.87,0,28.31V493c0,9.38,0,18.77,0,28.57h-18V409C800.78,408.49,787.36,409.09,774.07,408.58Z" transform="translate(-5.85 -5.75)" fill="#b3b3b3"/><path d="M1647,394.06h18.39V506.3h54.43v15.27h-72.66C1646.87,479.27,1647.1,436.89,1647,394.06Z" transform="translate(-5.85 -5.75)" fill="#b3b3b3"/><path d="M495.91,474.49c27.52-35.55,81.68-46.61,117.37-32.69-1.34,5.87-5.89,9.3-10.16,12.69a125,125,0,0,1-55.58,25.31c-15.47,2.9-30.83,2.45-45.85-2.74-1.14-.39-2.27-.82-3.39-1.29C497.65,475.48,497,475.09,495.91,474.49Z" transform="translate(-5.85 -5.75)" fill="#b3b3b3"/><path d="M168.2,474.76c-25.68,10.51-50.33,7.94-74.77-1.5-21.94-8.48-39-21.19-42.68-31.38C84.73,428.05,139.36,438.25,168.2,474.76Z" transform="translate(-5.85 -5.75)" fill="#b3b3b3"/><path d="M108.58,163.29c4.17-34.24,60.63-71.93,101-67.59-.18,4.8-2.74,8.65-5.21,12.43-16.52,25.21-39.2,42.26-68.13,50.84C127.27,161.64,118.16,163.86,108.58,163.29Z" transform="translate(-5.85 -5.75)" fill="#b3b3b3"/><path d="M556.36,162.86c-38.07,3.06-94.77-34.53-102.31-67.7,21.56.26,41.52,5.13,59.72,16.29C533.51,123.55,547.48,140.53,556.36,162.86Z" transform="translate(-5.85 -5.75)" fill="#b3b3b3"/><path d="M580.3,185.29c-1.65-2.34-2.83-3.77-3.75-5.35-11.15-19.27-18.62-39.78-20.29-62.11a88.27,88.27,0,0,1,9.49-47.7,22.34,22.34,0,0,1,1.41-2.53c2.26-3.28,4.09-3.74,7-.88a40.16,40.16,0,0,1,6.57,8.55c5.28,9.06,8.37,19,10.33,29.23,4.75,24.76,3.49,49-6.65,72.44C583.32,179.52,581.94,182,580.3,185.29Z" transform="translate(-5.85 -5.75)" fill="#b3b3b3"/><path d="M94.34,64.44c1.67,2.71,3.38,5,4.6,7.54,8.94,18.5,10.71,37.94,7.13,58a151.39,151.39,0,0,1-18.4,49.28c-1.05,1.82-2.32,3.52-3.86,5.83a34.44,34.44,0,0,1-2.58-4c-15.86-35.2-14.94-70.24,1.34-105C85.79,69.18,87.87,67.61,94.34,64.44Z" transform="translate(-5.85 -5.75)" fill="#b3b3b3"/><path d="M443.15,13.48a61,61,0,0,1,7.33,1,23.4,23.4,0,0,1,6,2.54c32.12,19.36,54,46.39,62.27,83.52a36,36,0,0,1,.41,5C480,99,438.19,48.94,443.15,13.48Z" transform="translate(-5.85 -5.75)" fill="#b3b3b3"/><path d="M143.68,106.89c1.73-7.22,2.64-13,4.48-18.37,10.22-30,29.5-52.94,56.19-69.7,4.77-3,9.83-6.32,17-4.41-.18,3.51-.06,7.07-.59,10.53-3.26,21.38-13.29,39.2-29,53.84C178.32,91.28,162.74,100.26,143.68,106.89Z" transform="translate(-5.85 -5.75)" fill="#b3b3b3"/><path d="M225.8,505.7c-4.19,4.83-9.49,7.08-14.92,9-11.31,4.07-23.14,5.05-35,5.13a242.65,242.65,0,0,1-65.25-8.38,92.09,92.09,0,0,1-9.56-3.37,39.18,39.18,0,0,1-4.69-2.8c2.55-1.79,4.47-3.37,6.6-4.61,12.75-7.46,26.7-11.21,41.26-12.67,18.62-1.87,37.21-2,55.33,3.74C209,494.74,218,498.58,225.8,505.7Z" transform="translate(-5.85 -5.75)" fill="#b3b3b3"/><path d="M567.62,505.7c-3.66,1.65-6.17,3.14-8.88,3.94-31,9.14-62.42,12.95-94.56,8-8.42-1.3-16.41-4-23.43-9.13-1-.71-2.11-1.2-4.18-2.36,4.65-3.11,7.69-5.4,11-7.28a85.22,85.22,0,0,1,33.6-10.76c22.57-2.46,44.92-1.56,66.51,6.4C554.41,497,561,499.92,567.62,505.7Z" transform="translate(-5.85 -5.75)" fill="#b3b3b3"/><path d="M133,433.11a32.81,32.81,0,0,1-17.86-1.88c-7-2.63-14-5.47-20.31-9.31a128.58,128.58,0,0,1-43.42-43.81,62.76,62.76,0,0,1-6.35-14.5c-1.64-5.47,1-8,6.49-6.69A108.19,108.19,0,0,1,63.94,361c19.5,7.4,36.75,18.13,50.26,34.29C123.3,406.21,129.88,418.38,133,433.11Z" transform="translate(-5.85 -5.75)" fill="#b3b3b3"/><path d="M529.92,433.86c2.42-6.78,4-12.09,6.17-17.11,6.15-14,15.57-25.47,27.3-35.13,14-11.53,30.06-19.14,47.32-24.31,7.18-2.15,9.74.41,7.63,7.6a47.79,47.79,0,0,1-4.5,10.61c-12.35,21.07-28.92,38-50.53,49.53-6.51,3.47-13.84,5.51-21,7.66C539,433.72,535.28,433.42,529.92,433.86Z" transform="translate(-5.85 -5.75)" fill="#b3b3b3"/><path d="M194.68,437c5.75,1.27,9.76,1.92,13.62,3.06A86.44,86.44,0,0,1,241,458.17c20.46,17.88,32.92,40.72,41.5,67.14a43.1,43.1,0,0,1-6-1.21c-37.52-13.85-63.16-40-78.89-76.38C196.42,444.93,196,441.81,194.68,437Z" transform="translate(-5.85 -5.75)" fill="#b3b3b3"/><path d="M381.46,524.75c1-2.9,1.8-5.59,2.78-8.23,7.56-20.43,18.21-38.94,34-54.23,12-11.69,26.1-19.84,42.54-23.65a39.48,39.48,0,0,1,5-.8,6.71,6.71,0,0,1,2,.4C468.43,467.17,413.64,522.42,381.46,524.75Z" transform="translate(-5.85 -5.75)" fill="#b3b3b3"/><path d="M178.78,470c-22.1-12.69-34.46-32-42.47-54.68-8-22.49-9.64-43.42-4.64-53.55C160.48,372.09,188.25,434.91,178.78,470Z" transform="translate(-5.85 -5.75)" fill="#b3b3b3"/><path d="M532.82,361c.74,3.7,2.05,7.14,2,10.57-.42,31.49-9.42,59.91-30.83,83.67a63.88,63.88,0,0,1-18.85,14.43C474.62,437.34,501.13,376.4,532.82,361Z" transform="translate(-5.85 -5.75)" fill="#b3b3b3"/><path d="M70,232.09a45,45,0,0,1-15-11.69c-6.58-7.6-11.16-16.38-14.56-25.75a144.57,144.57,0,0,1-8.89-54.78A57.65,57.65,0,0,1,33.39,127c1.39-5.17,3.59-5.71,7.75-2.52,1.15.88,2.21,1.88,3.28,2.86a81.57,81.57,0,0,1,21.1,30.88C74.73,182,75,206.31,70,232.09Z" transform="translate(-5.85 -5.75)" fill="#b3b3b3"/><path d="M593.89,232c-5.26-26.57-4.85-51.58,5.26-75.88a80.49,80.49,0,0,1,22.43-30.79c5.24-4.46,7.67-3.7,9.28,3a51.33,51.33,0,0,1,1.44,10c.74,21.57-2.61,42.49-11.51,62.2-3.24,7.18-7.92,13.79-12.53,20.24C604.9,225.58,600.16,229,593.89,232Z" transform="translate(-5.85 -5.75)" fill="#b3b3b3"/><path d="M339.69,212.72h19.84L324.73,354.19c-5.24,0-9.8.05-14.36,0a37.9,37.9,0,0,1-4.88-.8Z" transform="translate(-5.85 -5.75)" fill="#b3b3b3"/><path d="M582.53,268.84c-3.39-1.58-6.45-2.41-8.76-4.21a64.55,64.55,0,0,1-10.52-9.88,191.6,191.6,0,0,1-35.75-68.95c-1.35-4.69-3-9.74.26-14.44C560.93,175.75,588.79,224.5,582.53,268.84Z" transform="translate(-5.85 -5.75)" fill="#b3b3b3"/><path d="M136.57,170.75c.39,3,1.28,5.6.91,8a85.76,85.76,0,0,1-3.42,14.76c-6.87,20-16.27,38.73-29,55.64a118.18,118.18,0,0,1-13.86,14.7c-3.54,3.32-4.61,3.31-9.66,3.83C71.87,230.85,99.65,180.78,136.57,170.75Z" transform="translate(-5.85 -5.75)" fill="#b3b3b3"/><path d="M591,304.59c-3.26-42.55,20.13-87,51.3-97.75.68,2.38,1.95,4.73,1.89,7.06a94.14,94.14,0,0,1-1.49,15.82A132.83,132.83,0,0,1,622.38,279c-5.18,7.68-11.24,14.59-19.19,19.51C599.57,300.71,595.57,302.33,591,304.59Z" transform="translate(-5.85 -5.75)" fill="#b3b3b3"/><path d="M72.87,303.8A29.42,29.42,0,0,1,57.16,296c-5.9-5.65-11.8-11.55-16.42-18.22-11-15.93-17.47-33.89-20.65-52.95-1-5.83-1.67-11.9,1.19-18.23a52.19,52.19,0,0,1,5.81,2.27,78.94,78.94,0,0,1,28.38,26.42C67.41,253.45,74.48,281,72.87,303.8Z" transform="translate(-5.85 -5.75)" fill="#b3b3b3"/><path d="M143.58,13.23c11.6,41-.31,76.14-22.66,109.52C102,100.73,117.42,24.86,143.58,13.23Z" transform="translate(-5.85 -5.75)" fill="#b3b3b3"/><path d="M544.23,122.75c-22.77-26-37.19-77.37-23.17-109.13,4,.29,6.06,3.49,8.22,6.2C538.16,31,543.76,43.76,547.46,57.4c5.31,19.56,5.59,39.13-.58,58.6C546.19,118.2,545.2,120.31,544.23,122.75Z" transform="translate(-5.85 -5.75)" fill="#b3b3b3"/><path d="M83.12,356.3c-34.47-6.84-71.28-44.86-77.27-79.94,3,.49,5.92.37,8.3,1.45C41.8,290.29,64,308.87,77.81,336.36A48,48,0,0,1,83.12,356.3Z" transform="translate(-5.85 -5.75)" fill="#b3b3b3"/><path d="M581.12,356.23c-.12-29.37,49.2-80.51,76-79.37C657.43,305.54,616.45,348.55,581.12,356.23Z" transform="translate(-5.85 -5.75)" fill="#b3b3b3"/><path d="M560.51,264.11c18.23,28.65,17.2,79.85-4.77,111.92-2-3.33-4.1-6.21-5.59-9.38-5.55-11.84-7.43-24.48-7.36-37.43a146.79,146.79,0,0,1,10.27-53.86C554.72,271.17,556.21,266.67,560.51,264.11Z" transform="translate(-5.85 -5.75)" fill="#b3b3b3"/><path d="M103.08,264.2c3.73,1.56,4.91,5.14,6.39,8.33,4.94,10.61,7.69,21.89,9.58,33.37,2.65,16.13,3.05,32.26-.92,48.29-2.38,9.57-5.59,16-10.38,21C87.11,346.67,84.22,295,103.08,264.2Z" transform="translate(-5.85 -5.75)" fill="#b3b3b3"/></svg>