<?xml version="1.0" encoding="utf-8"?>
<!-- Generator: Adobe Illustrator 26.3.1, SVG Export Plug-In . SVG Version: 6.00 Build 0)  -->
<svg version="1.1" id="Layer_1" xmlns="http://www.w3.org/2000/svg" xmlns:xlink="http://www.w3.org/1999/xlink" x="0px" y="0px"
	 viewBox="0 0 40 40" style="enable-background:new 0 0 40 40;" xml:space="preserve">
<style type="text/css">
	.st0{fill:#FFFFFF;}
	.st1{fill:#EC2224;}
</style>
<circle class="st0" cx="20.2" cy="20.2" r="18.6"/>
<g>
	<path class="st1" d="M20,0C9,0,0,9,0,20s9,20,20,20s20-9,20-20S31,0,20,0z M20.3,9.1C20.5,9,20.8,9,21,9.2s0.1,0.5-0.1,0.6
		c-0.2,0.2-0.7,0.3-0.9,0.1C19.8,9.7,20.1,9.3,20.3,9.1z M36.4,16.1c-0.4-0.2-0.8-0.4-1.2-0.6c-1.8-0.7-2.7,0-3.4,1.5
		c-0.4,1-1.8,3.4-2,4.4c-0.2,0.7,0.8,0.1,0.3,1.9c-1,3.3-2.3,6.4-6.1,6.6c-6.7,0.4-9.2-6.7-8.3-12.8c0.5-3.8-0.5-1.4-0.8-0.3
		c-0.4,1.2-1.2,4.7-2.5,7.3c-1.7,3.2-5.5,3.7-7.7,0.8c-0.9-1.2-1.3-2.8-1.2-4.4c0-1.2,0.3-2.3,0.7-3.4c0.7-1.7,1.1-0.4,1.4-0.8
		c0.8-1,4-5.9,2.7-1.2c-0.6,2.2,0.7,2.4,2.1,1.7c0.3-0.2,0.3,1,0.7,0.7c0.1-0.1,0.4-0.6,0.6-1.1c0.7-1.3,1.6-2.1,2.7-3.1
		c1.3-1.2,2.5-2.1,4.2-2.8c1.6-0.7,1.2,0.4,1.1,1.2c-0.5,2.9,0.4,7,2.9,5.6c1.8-0.9,3-4.6,6.2-5.5c0.7-0.2,0.8,0.4,1.5,0.5
		c0.4,0.1,1.6-0.5,2.1-0.3c2,0.7,3.6,2.2,4.4,3.6C37,15.9,37.1,16.4,36.4,16.1z M38,20c-0.2,0-0.4-0.1-0.4-0.3
		c0-0.1,0.1-0.5,0.3-0.6c0.2,0,0.4,0.3,0.4,0.5C38.3,19.8,38.2,20,38,20z M38.1,18.4c-0.4,0.2-1,0.1-1.1-0.3
		c-0.5-1.7,0.2-2.7,1.4-0.8C38.6,17.6,38.5,18.2,38.1,18.4z"/>
</g>
</svg>
